<mxfile host="Electron" modified="2024-04-07T05:44:39.614Z" agent="Mozilla/5.0 (Windows NT 10.0; Win64; x64) AppleWebKit/537.36 (KHTML, like Gecko) draw.io/24.1.0 Chrome/120.0.6099.109 Electron/28.1.0 Safari/537.36" etag="Y1roGyFYyyc1LpG6-_K6" version="24.1.0" type="device">
  <diagram name="Page-1" id="atwgUbtL3f7em_0j_iZa">
    <mxGraphModel dx="1152" dy="677" grid="1" gridSize="10" guides="1" tooltips="1" connect="1" arrows="1" fold="1" page="1" pageScale="1" pageWidth="850" pageHeight="1100" math="0" shadow="0">
      <root>
        <mxCell id="0" />
        <mxCell id="1" parent="0" />
        <mxCell id="t81GKFjIm8nQGwN1mQ99-4" value="" style="edgeStyle=orthogonalEdgeStyle;rounded=0;orthogonalLoop=1;jettySize=auto;html=1;" edge="1" parent="1" source="t81GKFjIm8nQGwN1mQ99-1" target="t81GKFjIm8nQGwN1mQ99-3">
          <mxGeometry relative="1" as="geometry" />
        </mxCell>
        <mxCell id="t81GKFjIm8nQGwN1mQ99-1" value="Start" style="html=1;dashed=0;whiteSpace=wrap;shape=mxgraph.dfd.start" vertex="1" parent="1">
          <mxGeometry x="280" y="10" width="80" height="30" as="geometry" />
        </mxCell>
        <mxCell id="t81GKFjIm8nQGwN1mQ99-2" value="Stop" style="html=1;dashed=0;whiteSpace=wrap;shape=mxgraph.dfd.start" vertex="1" parent="1">
          <mxGeometry x="280" y="690" width="80" height="30" as="geometry" />
        </mxCell>
        <mxCell id="t81GKFjIm8nQGwN1mQ99-6" value="" style="edgeStyle=orthogonalEdgeStyle;rounded=0;orthogonalLoop=1;jettySize=auto;html=1;" edge="1" parent="1" source="t81GKFjIm8nQGwN1mQ99-3" target="t81GKFjIm8nQGwN1mQ99-5">
          <mxGeometry relative="1" as="geometry" />
        </mxCell>
        <mxCell id="t81GKFjIm8nQGwN1mQ99-3" value="Fill kettle with water" style="whiteSpace=wrap;html=1;dashed=0;" vertex="1" parent="1">
          <mxGeometry x="260" y="80" width="120" height="40" as="geometry" />
        </mxCell>
        <mxCell id="t81GKFjIm8nQGwN1mQ99-8" value="" style="edgeStyle=orthogonalEdgeStyle;rounded=0;orthogonalLoop=1;jettySize=auto;html=1;" edge="1" parent="1" source="t81GKFjIm8nQGwN1mQ99-5" target="t81GKFjIm8nQGwN1mQ99-7">
          <mxGeometry relative="1" as="geometry">
            <Array as="points">
              <mxPoint x="470" y="130" />
              <mxPoint x="620" y="130" />
            </Array>
          </mxGeometry>
        </mxCell>
        <mxCell id="t81GKFjIm8nQGwN1mQ99-5" value="Boil Water" style="whiteSpace=wrap;html=1;dashed=0;" vertex="1" parent="1">
          <mxGeometry x="410" y="80" width="120" height="40" as="geometry" />
        </mxCell>
        <mxCell id="t81GKFjIm8nQGwN1mQ99-46" style="edgeStyle=orthogonalEdgeStyle;rounded=0;orthogonalLoop=1;jettySize=auto;html=1;entryX=1;entryY=0.5;entryDx=0;entryDy=0;" edge="1" parent="1" source="t81GKFjIm8nQGwN1mQ99-7" target="t81GKFjIm8nQGwN1mQ99-5">
          <mxGeometry relative="1" as="geometry">
            <Array as="points">
              <mxPoint x="720" y="180" />
              <mxPoint x="720" y="100" />
            </Array>
          </mxGeometry>
        </mxCell>
        <mxCell id="t81GKFjIm8nQGwN1mQ99-72" value="No" style="edgeLabel;html=1;align=center;verticalAlign=middle;resizable=0;points=[];fontStyle=1" vertex="1" connectable="0" parent="t81GKFjIm8nQGwN1mQ99-46">
          <mxGeometry x="-0.363" y="-1" relative="1" as="geometry">
            <mxPoint as="offset" />
          </mxGeometry>
        </mxCell>
        <mxCell id="t81GKFjIm8nQGwN1mQ99-47" style="edgeStyle=orthogonalEdgeStyle;rounded=0;orthogonalLoop=1;jettySize=auto;html=1;entryX=0.5;entryY=0;entryDx=0;entryDy=0;" edge="1" parent="1" source="t81GKFjIm8nQGwN1mQ99-7" target="t81GKFjIm8nQGwN1mQ99-10">
          <mxGeometry relative="1" as="geometry" />
        </mxCell>
        <mxCell id="t81GKFjIm8nQGwN1mQ99-71" value="Yes" style="edgeLabel;html=1;align=center;verticalAlign=middle;resizable=0;points=[];fontStyle=1" vertex="1" connectable="0" parent="t81GKFjIm8nQGwN1mQ99-47">
          <mxGeometry x="-0.1329" y="-1" relative="1" as="geometry">
            <mxPoint as="offset" />
          </mxGeometry>
        </mxCell>
        <mxCell id="t81GKFjIm8nQGwN1mQ99-7" value="Water Boiled?" style="rhombus;whiteSpace=wrap;html=1;dashed=0;" vertex="1" parent="1">
          <mxGeometry x="580" y="140" width="80" height="80" as="geometry" />
        </mxCell>
        <mxCell id="t81GKFjIm8nQGwN1mQ99-12" value="" style="edgeStyle=orthogonalEdgeStyle;rounded=0;orthogonalLoop=1;jettySize=auto;html=1;" edge="1" parent="1" source="t81GKFjIm8nQGwN1mQ99-10" target="t81GKFjIm8nQGwN1mQ99-11">
          <mxGeometry relative="1" as="geometry" />
        </mxCell>
        <mxCell id="t81GKFjIm8nQGwN1mQ99-10" value="Put tea bag in cup" style="whiteSpace=wrap;html=1;" vertex="1" parent="1">
          <mxGeometry x="260" y="200" width="120" height="40" as="geometry" />
        </mxCell>
        <mxCell id="t81GKFjIm8nQGwN1mQ99-14" value="" style="edgeStyle=orthogonalEdgeStyle;rounded=0;orthogonalLoop=1;jettySize=auto;html=1;" edge="1" parent="1" source="t81GKFjIm8nQGwN1mQ99-11">
          <mxGeometry relative="1" as="geometry">
            <mxPoint x="320" y="280" as="targetPoint" />
            <Array as="points">
              <mxPoint x="470" y="260" />
              <mxPoint x="320" y="260" />
            </Array>
          </mxGeometry>
        </mxCell>
        <mxCell id="t81GKFjIm8nQGwN1mQ99-11" value="Pour hot water onto tea bag" style="whiteSpace=wrap;html=1;" vertex="1" parent="1">
          <mxGeometry x="410" y="200" width="120" height="40" as="geometry" />
        </mxCell>
        <mxCell id="t81GKFjIm8nQGwN1mQ99-18" value="" style="edgeStyle=orthogonalEdgeStyle;rounded=0;orthogonalLoop=1;jettySize=auto;html=1;" edge="1" parent="1" source="t81GKFjIm8nQGwN1mQ99-16" target="t81GKFjIm8nQGwN1mQ99-17">
          <mxGeometry relative="1" as="geometry" />
        </mxCell>
        <mxCell id="t81GKFjIm8nQGwN1mQ99-16" value="Remove&amp;nbsp; teabag when brewed" style="whiteSpace=wrap;html=1;" vertex="1" parent="1">
          <mxGeometry x="260" y="280" width="120" height="40" as="geometry" />
        </mxCell>
        <mxCell id="t81GKFjIm8nQGwN1mQ99-20" value="" style="edgeStyle=orthogonalEdgeStyle;rounded=0;orthogonalLoop=1;jettySize=auto;html=1;" edge="1" parent="1" source="t81GKFjIm8nQGwN1mQ99-17" target="t81GKFjIm8nQGwN1mQ99-19">
          <mxGeometry relative="1" as="geometry" />
        </mxCell>
        <mxCell id="t81GKFjIm8nQGwN1mQ99-69" value="Yes" style="edgeLabel;html=1;align=center;verticalAlign=middle;resizable=0;points=[];fontStyle=1" vertex="1" connectable="0" parent="t81GKFjIm8nQGwN1mQ99-20">
          <mxGeometry x="-0.2" relative="1" as="geometry">
            <mxPoint as="offset" />
          </mxGeometry>
        </mxCell>
        <mxCell id="t81GKFjIm8nQGwN1mQ99-22" value="" style="edgeStyle=orthogonalEdgeStyle;rounded=0;orthogonalLoop=1;jettySize=auto;html=1;" edge="1" parent="1" source="t81GKFjIm8nQGwN1mQ99-17" target="t81GKFjIm8nQGwN1mQ99-21">
          <mxGeometry relative="1" as="geometry">
            <Array as="points">
              <mxPoint x="480" y="350" />
              <mxPoint x="320" y="350" />
            </Array>
          </mxGeometry>
        </mxCell>
        <mxCell id="t81GKFjIm8nQGwN1mQ99-68" value="No" style="edgeLabel;html=1;align=center;verticalAlign=middle;resizable=0;points=[];fontStyle=1" vertex="1" connectable="0" parent="t81GKFjIm8nQGwN1mQ99-22">
          <mxGeometry x="-0.126" relative="1" as="geometry">
            <mxPoint x="1" as="offset" />
          </mxGeometry>
        </mxCell>
        <mxCell id="t81GKFjIm8nQGwN1mQ99-17" value="Milk?" style="rhombus;whiteSpace=wrap;html=1;" vertex="1" parent="1">
          <mxGeometry x="440" y="260" width="80" height="80" as="geometry" />
        </mxCell>
        <mxCell id="t81GKFjIm8nQGwN1mQ99-60" style="edgeStyle=orthogonalEdgeStyle;rounded=0;orthogonalLoop=1;jettySize=auto;html=1;entryX=0.5;entryY=0;entryDx=0;entryDy=0;" edge="1" parent="1" source="t81GKFjIm8nQGwN1mQ99-19" target="t81GKFjIm8nQGwN1mQ99-27">
          <mxGeometry relative="1" as="geometry" />
        </mxCell>
        <mxCell id="t81GKFjIm8nQGwN1mQ99-19" value="Add milk" style="whiteSpace=wrap;html=1;" vertex="1" parent="1">
          <mxGeometry x="580" y="280" width="120" height="40" as="geometry" />
        </mxCell>
        <mxCell id="t81GKFjIm8nQGwN1mQ99-24" value="" style="edgeStyle=orthogonalEdgeStyle;rounded=0;orthogonalLoop=1;jettySize=auto;html=1;" edge="1" parent="1" source="t81GKFjIm8nQGwN1mQ99-21" target="t81GKFjIm8nQGwN1mQ99-23">
          <mxGeometry relative="1" as="geometry" />
        </mxCell>
        <mxCell id="t81GKFjIm8nQGwN1mQ99-70" value="Yes" style="edgeLabel;html=1;align=center;verticalAlign=middle;resizable=0;points=[];fontStyle=1" vertex="1" connectable="0" parent="t81GKFjIm8nQGwN1mQ99-24">
          <mxGeometry x="-0.2" relative="1" as="geometry">
            <mxPoint as="offset" />
          </mxGeometry>
        </mxCell>
        <mxCell id="t81GKFjIm8nQGwN1mQ99-54" style="edgeStyle=orthogonalEdgeStyle;rounded=0;orthogonalLoop=1;jettySize=auto;html=1;exitX=0.5;exitY=1;exitDx=0;exitDy=0;" edge="1" parent="1" source="t81GKFjIm8nQGwN1mQ99-21">
          <mxGeometry relative="1" as="geometry">
            <mxPoint x="659.47" y="529.9300000000001" as="targetPoint" />
            <mxPoint x="320" y="480" as="sourcePoint" />
          </mxGeometry>
        </mxCell>
        <mxCell id="t81GKFjIm8nQGwN1mQ99-59" value="No" style="edgeLabel;html=1;align=center;verticalAlign=middle;resizable=0;points=[];fontStyle=1" vertex="1" connectable="0" parent="t81GKFjIm8nQGwN1mQ99-54">
          <mxGeometry x="0.2506" y="-1" relative="1" as="geometry">
            <mxPoint as="offset" />
          </mxGeometry>
        </mxCell>
        <mxCell id="t81GKFjIm8nQGwN1mQ99-21" value="lemon?" style="rhombus;whiteSpace=wrap;html=1;" vertex="1" parent="1">
          <mxGeometry x="280" y="380" width="80" height="80" as="geometry" />
        </mxCell>
        <mxCell id="t81GKFjIm8nQGwN1mQ99-23" value="Add lemon" style="whiteSpace=wrap;html=1;" vertex="1" parent="1">
          <mxGeometry x="410" y="400" width="120" height="40" as="geometry" />
        </mxCell>
        <mxCell id="t81GKFjIm8nQGwN1mQ99-30" value="" style="edgeStyle=orthogonalEdgeStyle;rounded=0;orthogonalLoop=1;jettySize=auto;html=1;" edge="1" parent="1" source="t81GKFjIm8nQGwN1mQ99-27" target="t81GKFjIm8nQGwN1mQ99-29">
          <mxGeometry relative="1" as="geometry">
            <Array as="points">
              <mxPoint x="500" y="540" />
              <mxPoint x="500" y="610" />
            </Array>
          </mxGeometry>
        </mxCell>
        <mxCell id="t81GKFjIm8nQGwN1mQ99-62" value="No" style="edgeLabel;html=1;align=center;verticalAlign=middle;resizable=0;points=[];fontStyle=1" vertex="1" connectable="0" parent="t81GKFjIm8nQGwN1mQ99-30">
          <mxGeometry x="-0.4664" y="-1" relative="1" as="geometry">
            <mxPoint as="offset" />
          </mxGeometry>
        </mxCell>
        <mxCell id="t81GKFjIm8nQGwN1mQ99-36" value="" style="edgeStyle=orthogonalEdgeStyle;rounded=0;orthogonalLoop=1;jettySize=auto;html=1;" edge="1" parent="1" source="t81GKFjIm8nQGwN1mQ99-27" target="t81GKFjIm8nQGwN1mQ99-35">
          <mxGeometry relative="1" as="geometry">
            <Array as="points">
              <mxPoint x="820" y="540" />
              <mxPoint x="820" y="698" />
            </Array>
          </mxGeometry>
        </mxCell>
        <mxCell id="t81GKFjIm8nQGwN1mQ99-63" value="Yes" style="edgeLabel;html=1;align=center;verticalAlign=middle;resizable=0;points=[];fontStyle=1" vertex="1" connectable="0" parent="t81GKFjIm8nQGwN1mQ99-36">
          <mxGeometry x="0.0457" relative="1" as="geometry">
            <mxPoint as="offset" />
          </mxGeometry>
        </mxCell>
        <mxCell id="t81GKFjIm8nQGwN1mQ99-27" value="Sugar?" style="rhombus;whiteSpace=wrap;html=1;" vertex="1" parent="1">
          <mxGeometry x="620" y="500" width="80" height="80" as="geometry" />
        </mxCell>
        <mxCell id="t81GKFjIm8nQGwN1mQ99-29" value="Drink Tea" style="whiteSpace=wrap;html=1;" vertex="1" parent="1">
          <mxGeometry x="260" y="580" width="120" height="60" as="geometry" />
        </mxCell>
        <mxCell id="t81GKFjIm8nQGwN1mQ99-31" style="edgeStyle=orthogonalEdgeStyle;rounded=0;orthogonalLoop=1;jettySize=auto;html=1;entryX=0.5;entryY=0.5;entryDx=0;entryDy=-15;entryPerimeter=0;" edge="1" parent="1" source="t81GKFjIm8nQGwN1mQ99-29" target="t81GKFjIm8nQGwN1mQ99-2">
          <mxGeometry relative="1" as="geometry" />
        </mxCell>
        <mxCell id="t81GKFjIm8nQGwN1mQ99-35" value="Add Sugar" style="whiteSpace=wrap;html=1;" vertex="1" parent="1">
          <mxGeometry x="600" y="670" width="120" height="55" as="geometry" />
        </mxCell>
        <mxCell id="t81GKFjIm8nQGwN1mQ99-66" value="" style="endArrow=none;html=1;rounded=0;entryX=0;entryY=0.5;entryDx=0;entryDy=0;" edge="1" parent="1" target="t81GKFjIm8nQGwN1mQ99-35">
          <mxGeometry width="50" height="50" relative="1" as="geometry">
            <mxPoint x="420" y="610" as="sourcePoint" />
            <mxPoint x="470" y="580" as="targetPoint" />
            <Array as="points">
              <mxPoint x="420" y="700" />
            </Array>
          </mxGeometry>
        </mxCell>
        <mxCell id="t81GKFjIm8nQGwN1mQ99-67" value="" style="endArrow=none;html=1;rounded=0;entryX=1;entryY=0.5;entryDx=0;entryDy=0;" edge="1" parent="1" target="t81GKFjIm8nQGwN1mQ99-23">
          <mxGeometry width="50" height="50" relative="1" as="geometry">
            <mxPoint x="660" y="420" as="sourcePoint" />
            <mxPoint x="470" y="450" as="targetPoint" />
            <Array as="points" />
          </mxGeometry>
        </mxCell>
      </root>
    </mxGraphModel>
  </diagram>
</mxfile>
